<?xml version="1.0" encoding="UTF-8" standalone="no"?>
<!-- Created with Inkscape (http://www.inkscape.org/) -->

<svg
   width="10.037363mm"
   height="10.039058mm"
   viewBox="0 0 10.037363 10.039058"
   version="1.1"
   id="svg1"
   inkscape:version="1.3.2 (091e20e, 2023-11-25, custom)"
   sodipodi:docname="LZX_KNOB_FILLED.svg"
   xmlns:inkscape="http://www.inkscape.org/namespaces/inkscape"
   xmlns:sodipodi="http://sodipodi.sourceforge.net/DTD/sodipodi-0.dtd"
   xmlns:xlink="http://www.w3.org/1999/xlink"
   xmlns="http://www.w3.org/2000/svg"
   xmlns:svg="http://www.w3.org/2000/svg">
  <sodipodi:namedview
     id="namedview1"
     pagecolor="#ffffff"
     bordercolor="#111111"
     borderopacity="1"
     inkscape:showpageshadow="0"
     inkscape:pageopacity="0"
     inkscape:pagecheckerboard="1"
     inkscape:deskcolor="#d1d1d1"
     inkscape:document-units="mm"
     inkscape:zoom="2.9611953"
     inkscape:cx="18.742432"
     inkscape:cy="43.394639"
     inkscape:window-width="1920"
     inkscape:window-height="1027"
     inkscape:window-x="-8"
     inkscape:window-y="-8"
     inkscape:window-maximized="1"
     inkscape:current-layer="layer1" />
  <defs
     id="defs1">
    <clipPath
       clipPathUnits="userSpaceOnUse"
       id="clipPath1171">
      <path
         d="m 64.635,295.361 h 43.529 v 43.526 H 64.635 Z"
         transform="translate(-93.513902,-329.44911)"
         id="path1171" />
    </clipPath>
    <clipPath
       clipPathUnits="userSpaceOnUse"
       id="clipPath1180">
      <path
         d="m 64.635,295.361 h 43.529 v 43.526 H 64.635 Z"
         transform="matrix(1.3333333,0,0,-1.3333333,0,485.664)"
         id="path1180" />
    </clipPath>
    <mask
       maskUnits="userSpaceOnUse"
       x="0"
       y="0"
       width="1"
       height="1"
       id="mask1175"
       opacity="0.449997">
      <g
         id="g1176"
         clip-path="url(#clipPath1177)">
        <image
           width="1"
           height="1"
           style="image-rendering:optimizeSpeed"
           preserveAspectRatio="none"
           xlink:href="../../../../../../Pictures/lzxart-main/Keyer/LZX%2012HP%20Keyer%20Frontpanel%20Color%20Graphic%20Dark_img3.png"
           transform="matrix(21.333333,0,0,34.666665,104.5332,44.164651)"
           clip-path="url(#clipPath1176)"
           id="image1176" />
      </g>
    </mask>
    <clipPath
       clipPathUnits="userSpaceOnUse"
       id="clipPath1177">
      <path
         d="m 78.3998,331.124 h 16 v -26 h -16 z"
         transform="matrix(1.3333333,0,0,-1.3333333,0,485.664)"
         id="path1177" />
    </clipPath>
    <clipPath
       clipPathUnits="userSpaceOnUse"
       id="clipPath1176">
      <path
         d="m 78.3999,331.125 h 16 v -26 h -16 z"
         transform="matrix(0.0625,0,0,-0.03846154,-4.8999938,12.735559)"
         id="path1176" />
    </clipPath>
    <clipPath
       clipPathUnits="userSpaceOnUse"
       id="clipPath1178">
      <path
         d="m 80.7603,328.428 h 11.304 V 307.26 h -11.304 z"
         transform="translate(-86.416202,-328.42801)"
         id="path1178" />
    </clipPath>
    <clipPath
       clipPathUnits="userSpaceOnUse"
       id="clipPath1171-9">
      <path
         d="m 64.635,295.361 h 43.529 v 43.526 H 64.635 Z"
         transform="translate(-93.513902,-329.44911)"
         id="path1171-3" />
    </clipPath>
  </defs>
  <g
     inkscape:label="Layer 1"
     inkscape:groupmode="layer"
     id="layer1"
     transform="translate(-85.724999,-127.52916)">
    <path
       id="path1170"
       d="m 0,0 c -6.795,3.924 -15.514,1.587 -19.437,-5.208 -3.923,-6.796 -1.586,-15.517 5.209,-19.441 6.795,-3.924 15.514,-1.587 19.437,5.209 C 9.131,-12.645 6.795,-3.924 0,0"
       style="display:inline;fill:#383838 icc-color(sRGB-IEC61966-2, 0.1, 0.21998596, 0.21998596, 0.21998596);fill-opacity:1;fill-rule:nonzero;stroke:none"
       transform="matrix(0.35277776,0,0,-0.35277776,93.25342,128.20089)"
       clip-path="url(#clipPath1171-9)" />
    <path
       id="path1175"
       d="m 90.749404,128.56118 -1.995311,7.4676 h 3.9878 z"
       style="display:inline;fill:#ffffff icc-color(sRGB-IEC61966-2, 0.1, 1, 1, 1);fill-opacity:1;fill-rule:nonzero;stroke:none;stroke-width:0.352778" />
  </g>
</svg>
